<svg width="150" height="45" viewBox="0 0 293 57" fill="none" xmlns="http://www.w3.org/2000/svg">
<path fill-rule="evenodd" clip-rule="evenodd" d="M87.588 1.03802C70.5969 -0.301133 56.5233 13.7731 57.8639 30.7648C58.9173 44.1309 69.7477 54.9604 83.1154 56.0139C100.107 57.3538 114.18 43.2795 112.839 26.2871C111.785 12.921 100.956 2.09146 87.588 1.03802Z" fill="white"/>
<path fill-rule="evenodd" clip-rule="evenodd" d="M49.83 0.950684H3.52433C1.85368 0.950684 0.5 2.30438 0.5 3.97433V11.7148C0.5 13.3848 1.85368 14.7385 3.52433 14.7385H23.9989C26.1523 14.7385 27.4202 17.1565 26.1952 18.9275L3.77805 51.3595C2.39166 53.3661 3.82822 56.1033 6.26585 56.1033H52.6282C54.2982 56.1033 55.6526 54.7496 55.6526 53.0789V45.3398C55.6526 43.6692 54.2982 42.3147 52.6282 42.3147H31.716C29.5532 42.3147 28.2875 39.8785 29.5314 38.109L52.3033 5.71407C53.7122 3.71042 52.2793 0.950684 49.83 0.950684Z" fill="white"/>
<path fill-rule="evenodd" clip-rule="evenodd" d="M149.106 1.03802C132.114 -0.301133 118.042 13.7731 119.381 30.7648C120.436 44.1309 131.266 54.9604 144.633 56.0139C161.625 57.3538 175.698 43.2795 174.357 26.2871C173.302 12.921 162.473 2.09146 149.106 1.03802Z" fill="white"/>
<path fill-rule="evenodd" clip-rule="evenodd" d="M288.292 0.949707H285.881H280.22H240.895C238.753 0.949707 237.018 2.68581 237.018 4.82759V28.526C237.018 43.7562 249.363 56.1023 264.593 56.1023C279.824 56.1023 292.17 43.7562 292.17 28.526V4.82759C292.17 2.68581 290.433 0.949707 288.292 0.949707Z" fill="white"/>
<path fill-rule="evenodd" clip-rule="evenodd" d="M177.934 0.949707C175.343 0.949707 173.659 3.66218 174.814 5.97043L198.761 53.8077C200.292 56.8633 204.667 56.8684 206.203 53.8157L230.283 5.9777C231.444 3.66872 229.759 0.949707 227.166 0.949707H177.934Z" fill="white"/>
</svg>
